<?xml version="1.0" encoding="utf-8"?>
<!-- Generator: Adobe Illustrator 22.0.1, SVG Export Plug-In . SVG Version: 6.00 Build 0)  -->
<svg version="1.1" id="Layer_1" xmlns="http://www.w3.org/2000/svg" xmlns:xlink="http://www.w3.org/1999/xlink" x="0px" y="0px"
	 viewBox="0 0 165.2 233.4" style="enable-background:new 0 0 165.2 233.4;" xml:space="preserve">
<style type="text/css">
	.st0{fill:#35495E;}
	.st1{fill:#41B883;}
	.st2{font-family:'Bebas';}
	.st3{font-size:37.3137px;}
</style>
<polygon class="st0" points="111.1,169.7 139.8,157.5 143.6,126.6 118.7,107.8 90,120 86.2,150.9 "/>
<polygon class="st1" points="62.3,97.9 66.1,67 41.2,48.2 12.5,60.4 8.7,91.3 33.6,110.1 "/>
<polygon class="st0" points="96.8,54.1 100.6,23.1 43.2,47.5 68.1,66.3 "/>
<polygon class="st1" points="152,60.8 155.8,29.8 130.8,11.1 102.1,23.2 98.3,54.2 123.2,73 "/>
<polygon class="st0" points="121.8,74.9 96.9,56.2 68.1,68.3 64.3,99.3 89.3,118.1 118,105.9 "/>
<text transform="matrix(1 0 0 1 13.6772 213.2461)"><tspan x="0" y="0" class="st0 st2 st3">Time</tspan><tspan x="71.9" y="0" class="st1 st2 st3">Vue</tspan></text>
</svg>
