<?xml version="1.0" encoding="utf-8"?>
<!-- Generator: Adobe Illustrator 22.0.1, SVG Export Plug-In . SVG Version: 6.00 Build 0)  -->
<svg version="1.2" baseProfile="tiny" id="Layer_1" xmlns="http://www.w3.org/2000/svg" xmlns:xlink="http://www.w3.org/1999/xlink"
	 x="0px" y="0px" viewBox="0 0 170 170" xml:space="preserve">
<polygon fill="#35495E" points="113.5,163.4 142.2,151.2 146,120.2 121.1,101.4 92.4,113.6 88.6,144.6 "/>
<polygon fill="#41B883" points="64.7,91.6 68.5,60.6 43.6,41.8 14.9,54 11.1,85 36,103.8 "/>
<polygon fill="#35495E" points="99.2,47.7 103,16.8 45.6,41.2 70.5,59.9 "/>
<polygon fill="#41B883" points="154.4,54.5 158.2,23.5 133.3,4.7 104.5,16.9 100.7,47.9 125.6,66.7 "/>
<polygon fill="#35495E" points="124.2,68.6 99.3,49.8 70.5,62 66.7,93 91.7,111.8 120.4,99.6 "/>
<text transform="matrix(1 0 0 1 16.0813 206.898)" fill="#35495E" font-family="'Bebas'" font-size="37.3137px">T</text>
<text transform="matrix(1 0 0 1 35.74 206.898)" fill="#35495E" font-family="'Bebas'" font-size="37.3137px">i</text>
<text transform="matrix(1 0 0 1 45.2327 206.898)" fill="#35495E" font-family="'Bebas'" font-size="37.3137px">m</text>
<text transform="matrix(1 0 0 1 72.9632 206.898)" fill="#35495E" font-family="'Bebas'" font-size="37.3137px">e</text>
<text transform="matrix(1 0 0 1 90.6727 206.898)" fill="#41B883" font-family="'Bebas'" font-size="37.3137px">V</text>
<text transform="matrix(1 0 0 1 113.7024 206.898)" fill="#41B883" font-family="'Bebas'" font-size="37.3137px">u</text>
<text transform="matrix(1 0 0 1 134.0169 206.898)" fill="#41B883" font-family="'Bebas'" font-size="37.3137px">e</text>
</svg>
